<?xml version="1.0" encoding="UTF-8" standalone="no"?>
<!-- Created with Inkscape (http://www.inkscape.org/) -->

<svg
   xmlns:dc="http://purl.org/dc/elements/1.1/"
   xmlns:cc="http://creativecommons.org/ns#"
   xmlns:rdf="http://www.w3.org/1999/02/22-rdf-syntax-ns#"
   xmlns:svg="http://www.w3.org/2000/svg"
   xmlns="http://www.w3.org/2000/svg"
   xmlns:sodipodi="http://sodipodi.sourceforge.net/DTD/sodipodi-0.dtd"
   xmlns:inkscape="http://www.inkscape.org/namespaces/inkscape"
   version="1.2"
   width="99.382156"
   height="90.359642"
   id="svg2"
   inkscape:version="0.48.4 r9939"
   sodipodi:docname="GO.svg"
   inkscape:export-filename="/home/claudionico/Dropbox/BreakingBed/Icons/GO.png"
   inkscape:export-xdpi="600"
   inkscape:export-ydpi="600">
  <sodipodi:namedview
     pagecolor="#ffffff"
     bordercolor="#666666"
     borderopacity="1"
     objecttolerance="10"
     gridtolerance="10"
     guidetolerance="10"
     inkscape:pageopacity="0"
     inkscape:pageshadow="2"
     inkscape:window-width="1024"
     inkscape:window-height="544"
     id="namedview26"
     showgrid="false"
     fit-margin-top="0"
     fit-margin-left="0"
     fit-margin-right="0"
     fit-margin-bottom="0"
     inkscape:zoom="2.5552286"
     inkscape:cx="89.890043"
     inkscape:cy="30.261996"
     inkscape:window-x="0"
     inkscape:window-y="0"
     inkscape:window-maximized="1"
     inkscape:current-layer="svg2" />
  <defs
     id="defs4" />
  <metadata
     id="metadata7">
    <rdf:RDF>
      <cc:Work
         rdf:about="">
        <dc:format>image/svg+xml</dc:format>
        <dc:type
           rdf:resource="http://purl.org/dc/dcmitype/StillImage" />
        <dc:title />
      </cc:Work>
    </rdf:RDF>
  </metadata>
  <g
     id="g3063">
    <flowRoot
       style="font-size:40px;font-style:normal;font-weight:normal;line-height:125%;letter-spacing:0px;word-spacing:0px;fill:#000000;fill-opacity:1;stroke:none;font-family:Sans"
       xml:space="preserve"
       id="flowRoot3850"
       transform="translate(-494.54139,-326.33628)"><flowRegion
         id="flowRegion3852"><rect
           id="rect3854"
           y="437.17929"
           x="142.4315"
           height="43.436558"
           width="93.944183" /></flowRegion><flowPara
         id="flowPara3856" /></flowRoot>    <text
       sodipodi:linespacing="125%"
       style="font-size:40px;font-style:normal;font-weight:normal;line-height:125%;letter-spacing:0px;word-spacing:0px;fill:#000000;fill-opacity:1;stroke:none;font-family:Sans"
       xml:space="preserve"
       id="text3022"
       y="-99.26873"
       x="-286.44998"><tspan
         id="tspan3024"
         y="-99.26873"
         x="-286.44998" /></text>
    <text
       sodipodi:linespacing="125%"
       style="font-size:47.39471054px;font-style:normal;font-weight:normal;line-height:125%;letter-spacing:0px;word-spacing:0px;fill:#000000;fill-opacity:1;stroke:#000000;stroke-width:2.36973548;stroke-miterlimit:4;stroke-dasharray:none;font-family:Sans"
       xml:space="preserve"
       id="text3021"
       y="59.175121"
       x="30.618767"><tspan
         style="font-style:normal;font-variant:normal;font-weight:normal;font-stretch:normal;fill:#000000;stroke:#000000;stroke-width:2.36973548;stroke-miterlimit:4;stroke-dasharray:none;font-family:Snacker Comic Personal Use Only;-inkscape-font-specification:Snacker Comic Personal Use Only"
         id="tspan3023"
         y="59.175121"
         x="30.618767" /></text>
    <path
       d="m 94.909254,45.17982 a 45.17982,45.17982 0 0 1 -90.3596404,0 45.17982,45.17982 0 1 1 90.3596404,0 z"
       id="path3806"
       style="fill:#e54028;fill-opacity:1;stroke:none"
       inkscape:connector-curvature="0" />
    <g
       id="g3051">
      <path
         inkscape:connector-curvature="0"
         style="stroke:#800000;stroke-width:2.58174944;stroke-linecap:butt;stroke-linejoin:miter;stroke-miterlimit:4;stroke-opacity:1;stroke-dasharray:none"
         id="path3812"
         d="m 12.821027,33.105436 c 0,0 3.52629,-6.33029 32.28235,-13.39824 28.75606,-7.06795 34.81512,-3.09364 34.81512,-3.09364 l 0,0 -0.43046,1.0204 c 0,0 4.13776,2.08996 8.4587,19.66979 4.32095,17.57982 1.6235,21.3498 1.6235,21.3498 l 0,0 0.33146,-0.75779 0,0 c 0,0 -3.62085,5.94782 -32.38001,13.01653 -28.75917,7.06871 -34.7247,3.47713 -34.7247,3.47713 l 0.36185,-0.10841 0,0 c 0,0 -4.13777,-2.08996 -8.45871,-19.66978 -4.32094,-17.57983 -1.62349,-21.34981 -1.62349,-21.34981 z m 74.25502,26.20045 c 0.0914,-0.21133 2.00505,2.55345 6.23768,2.33798 4.22504,-0.21508 5.59843,1.18323 4.31992,-1.12629 -2.55703,-4.61903 -1.5521,-3.90087 -4.12746,-6.15725 -3.08964,-2.70697 -6.12829,-1.21216 -6.12829,-1.21216 m -10.96914,-37.24231 c 0.17897,0.14486 0.59287,-3.19199 4.44312,-4.96321 3.84333,-1.7680498 4.41201,-3.6436998 4.34981,-1.0046498 -0.1244,5.2781098 0.4331,4.1759198 -0.80282,7.3690598 -1.48272,3.83082 -4.86809,3.91497 -4.86809,3.91497" />
      <g
         id="g3823"
         transform="matrix(0.27774092,-0.06826592,0.06826592,0.27774092,-45.771343,-67.293434)">
        <path
           inkscape:connector-curvature="0"
           style="fill:#ffffff;stroke:#000000;stroke-width:9.02686119;stroke-linecap:butt;stroke-linejoin:miter;stroke-miterlimit:4;stroke-opacity:1;stroke-dasharray:none"
           id="path3784"
           d="m 107.15461,383.78774 c 0,0 17.25592,-18.55075 120.79148,-18.55075 103.53555,0 120.79148,18.55075 120.79148,18.55075 l 0,0 -2.31316,3.10539 c 0,0 12.30501,10.5493 12.30501,73.84506 0,63.29575 -12.30501,73.84505 -12.30501,73.84505 l 0,0 1.75783,-2.29637 0,0 c 0,0 -17.25778,17.17321 -120.8045,17.17321 -103.54673,0 -120.80451,-17.17321 -120.80451,-17.17321 l 1.31908,-0.0661 0,0 c 0,0 -12.305013,-10.54931 -12.305013,-73.84507 0,-63.29576 12.305013,-73.84505 12.305013,-73.84505 z" />
        <path
           inkscape:connector-curvature="0"
           style="fill:#ffffff;stroke:#000000;stroke-width:10;stroke-linecap:round;stroke-linejoin:round;stroke-miterlimit:4;stroke-opacity:1;stroke-dasharray:none"
           id="path3763"
           d="m 115.37897,383.48629 c -0.48679,0.64121 -4.67688,-10.34319 -19.22799,-13.14391 -14.525017,-2.79571 -18.021197,-8.68961 -15.607595,0.21899 4.827199,17.81722 2.014466,14.54015 8.875663,24.35059 8.231352,11.76957 19.796132,9.23006 19.796132,9.23006" />
        <path
           inkscape:connector-curvature="0"
           style="fill:#ffffff;stroke:#000000;stroke-width:10;stroke-linecap:round;stroke-linejoin:round;stroke-miterlimit:4;stroke-opacity:1;stroke-dasharray:none"
           id="path3794"
           d="m 339.41134,382.45583 c 0.48679,0.64121 4.67688,-10.34319 19.22799,-13.14391 14.52501,-2.79571 18.02119,-8.68961 15.60759,0.21899 -4.8272,17.81722 -2.01446,14.54015 -8.87566,24.35059 -8.23135,11.76957 -19.79613,9.23006 -19.79613,9.23006" />
        <path
           inkscape:connector-curvature="0"
           style="fill:#ffffff;stroke:#000000;stroke-width:10;stroke-linecap:round;stroke-linejoin:round;stroke-miterlimit:4;stroke-opacity:1;stroke-dasharray:none"
           id="path3796"
           d="m 119.37897,537.68618 c -0.48679,-0.64121 -4.67688,10.34319 -19.22799,13.14391 -14.525017,2.79571 -18.021197,8.68961 -15.607595,-0.21899 4.827199,-17.81722 2.014466,-14.54015 8.875663,-24.35059 8.231352,-11.76957 19.796132,-9.23006 19.796132,-9.23006" />
        <path
           inkscape:connector-curvature="0"
           style="fill:#ffffff;stroke:#000000;stroke-width:10;stroke-linecap:round;stroke-linejoin:round;stroke-miterlimit:4;stroke-opacity:1;stroke-dasharray:none"
           id="path3798"
           d="m 341.41134,534.71664 c 0.48679,-0.64121 4.67688,10.34319 19.22799,13.14391 14.52501,2.79571 18.02119,8.68961 15.60759,-0.21899 -4.8272,-17.81722 -2.01446,-14.54015 -8.87566,-24.35059 -8.23135,-11.76957 -19.79613,-9.23006 -19.79613,-9.23006" />
      </g>
      <g
         style="font-size:40px;font-style:normal;font-weight:normal;line-height:125%;letter-spacing:0px;word-spacing:0px;fill:#000000;fill-opacity:1;stroke:none;font-family:Sans"
         id="text3793"
         transform="translate(-2.9946448e-6,-3.8e-6)">
        <path
           inkscape:connector-curvature="0"
           style="font-variant:normal;font-weight:bold;font-stretch:normal;font-family:UnDotum;-inkscape-font-specification:UnDotum Bold"
           id="path3785"
           d="m 46.67495,57.899818 -2.92,0 -0.92,-3.16 c -1.920018,2.373335 -4.413348,3.56 -7.48,3.56 -1.946677,0 -3.666675,-0.373333 -5.16,-1.12 -1.493339,-0.773331 -2.680004,-1.81333 -3.56,-3.12 -0.880002,-1.333328 -1.546668,-2.799993 -2,-4.4 -0.426668,-1.626656 -0.640001,-3.373321 -0.64,-5.24 -1e-6,-1.919984 0.239999,-3.719982 0.72,-5.4 0.479998,-1.679979 1.186664,-3.199977 2.12,-4.56 0.933329,-1.359975 2.173328,-2.42664 3.72,-3.2 1.573324,-0.799972 3.359989,-1.199972 5.36,-1.2 2.933318,2.8e-5 5.346649,0.840027 7.24,2.52 1.919978,1.680024 3.09331,3.973355 3.52,6.88 l -6.08,0.84 c -0.160017,-1.493314 -0.65335,-2.706646 -1.48,-3.64 -0.800015,-0.959977 -1.920014,-1.439977 -3.36,-1.44 -1.066678,2.3e-5 -1.973344,0.306689 -2.72,0.92 -0.720009,0.613355 -1.253342,1.440021 -1.6,2.48 -0.320008,1.040019 -0.546674,2.026684 -0.68,2.96 -0.133341,0.933349 -0.200007,1.906682 -0.2,2.92 -7e-6,0.98668 0.07999,1.946679 0.24,2.88 0.159992,0.906677 0.426659,1.813342 0.8,2.72 0.373325,0.906674 0.933324,1.640007 1.68,2.2 0.773323,0.533339 1.693322,0.800005 2.76,0.8 1.333319,5e-6 2.426651,-0.399994 3.28,-1.2 0.853316,-0.826659 1.279983,-1.906658 1.28,-3.24 l 0,-0.32 -5.2,0 0,-5.12 11.28,0 0,14.68" />
        <path
           inkscape:connector-curvature="0"
           style="font-variant:normal;font-weight:bold;font-stretch:normal;font-family:UnDotum;-inkscape-font-specification:UnDotum Bold"
           id="path3787"
           d="m 73.955097,44.139818 c -2.5e-5,1.866679 -0.240025,3.626677 -0.72,5.28 -0.480024,1.653341 -1.18669,3.160006 -2.12,4.52 -0.906688,1.333336 -2.12002,2.400002 -3.64,3.2 -1.520017,0.773334 -3.253348,1.16 -5.2,1.16 -1.946678,0 -3.693343,-0.386666 -5.24,-1.16 -1.520006,-0.799998 -2.746672,-1.866664 -3.68,-3.2 -0.933337,-1.333328 -1.640003,-2.826659 -2.12,-4.48 -0.480002,-1.679989 -0.720001,-3.453321 -0.72,-5.32 -10e-7,-3.946649 0.999998,-7.279979 3,-10 2.02666,-2.719973 4.946657,-4.079972 8.76,-4.08 1.919985,2.8e-5 3.639983,0.400028 5.16,1.2 1.51998,0.77336 2.746646,1.826692 3.68,3.16 0.93331,1.333356 1.639976,2.826688 2.12,4.48 0.479975,1.653351 0.719975,3.400016 0.72,5.24 m -11.68,8.92 c 3.30665,5e-6 4.959982,-2.959992 4.96,-8.88 -1.8e-5,-5.91998 -1.65335,-8.879977 -4.96,-8.88 -3.36001,2.3e-5 -5.040008,2.946687 -5.04,8.84 -8e-6,5.946675 1.67999,8.920005 5.04,8.92" />
      </g>
    </g>
  </g>
</svg>
